<svg width="110" height="110" viewBox="0 0 110 110" fill="none" xmlns="http://www.w3.org/2000/svg">
<g filter="url(#filter0_d)">
<circle cx="55" cy="53" r="35" fill="url(#paint0_linear)"/>
<path d="M40.7081 60.6101C39.408 60.6101 38.5277 59.2858 39.031 58.0871L51.0605 29.4333C51.4251 28.5649 52.275 28 53.2168 28H58.5651C59.5006 28 60.3461 28.5575 60.7146 29.4174L77.8084 69.303C78.4697 70.8461 77.3378 72.5628 75.6589 72.5628H36.0809C34.5952 72.5628 33.5891 71.0493 34.1642 69.6794L36.1278 65.0022C36.4519 64.2303 37.2073 63.7282 38.0445 63.7282H65.5638L56.0796 40.2125L48.1069 59.1778C47.7421 60.0456 46.8925 60.6101 45.9511 60.6101H40.7081Z" fill="white"/>
</g>
<defs>
<filter id="filter0_d" x="0" y="0" width="110" height="110" filterUnits="userSpaceOnUse" color-interpolation-filters="sRGB">
<feFlood flood-opacity="0" result="BackgroundImageFix"/>
<feColorMatrix in="SourceAlpha" type="matrix" values="0 0 0 0 0 0 0 0 0 0 0 0 0 0 0 0 0 0 127 0" result="hardAlpha"/>
<feOffset dy="2"/>
<feGaussianBlur stdDeviation="10"/>
<feComposite in2="hardAlpha" operator="out"/>
<feColorMatrix type="matrix" values="0 0 0 0 0 0 0 0 0 0 0 0 0 0 0 0 0 0 0.14 0"/>
<feBlend mode="normal" in2="BackgroundImageFix" result="effect1_dropShadow"/>
<feBlend mode="normal" in="SourceGraphic" in2="effect1_dropShadow" result="shape"/>
</filter>
<linearGradient id="paint0_linear" x1="55" y1="18" x2="55" y2="88" gradientUnits="userSpaceOnUse">
<stop stop-color="#DB6460"/>
<stop offset="1" stop-color="#E2807D"/>
</linearGradient>
</defs>
</svg>
